<?xml version="1.0" encoding="UTF-8"?>
<svg id="Layer_1" xmlns="http://www.w3.org/2000/svg" version="1.1" viewBox="0 0 157.45 90.79">
  <!-- Generator: Adobe Illustrator 30.3.0, SVG Export Plug-In . SVG Version: 2.1.3 Build 182)  -->
  <defs>
    <style>
      .st0 {
        fill: #3ebdac;
      }
    </style>
  </defs>
  <g>
    <path class="st0" d="M119.2,52.43h4.12c0,10.19.02,20.38-.02,30.57,0,1.16-.17,2.37-.54,3.47-.81,2.4-2.61,3.82-5.1,4.18-1.31.19-2.67.19-3.99.05-1.88-.19-3.64-1.14-4.73-2.68-.81-1.15-1.51-2.39-2.14-3.66-4.16-8.4-8.29-16.81-12.43-25.21-.92-1.86-2.09-2.55-3.89-2.28-1.1.17-1.99,1.08-2.08,2.19-.03.33-.02.66-.02.99,0,8.43,0,24.54,0,28.96,0,.64-.51,1.14-1.15,1.14h-4.13c0-10.2,0-20.4,0-30.6,0-2.03.35-4,1.92-5.7.88-.95,2.08-1.56,3.34-1.86,1.61-.38,3.23-.4,4.85-.05,1.86.39,3.5,1.53,4.54,3.13.71,1.09,1.36,2.23,1.94,3.39,4.12,8.3,8.22,16.61,12.33,24.91.19.39.4.77.66,1.12.92,1.24,2.54,1.64,3.96,1,.63-.28,1.14-.85,1.3-1.53.11-.49.12-1,.12-1.5,0-8.42,0-24.5,0-28.9,0-.63.51-1.14,1.15-1.14"/>
    <path class="st0" d="M.68,90.17v-4.03c0-.64.51-1.15,1.15-1.15h6.6c4.48,0,9.92,0,13.42,0,.76,0,1.54-.03,2.29-.16,2.55-.45,4.2-2.33,4.33-4.94.04-.76,0-1.54-.16-2.28-.45-2.17-1.97-3.29-4-3.77-.96-.23-1.97-.28-2.96-.29-3.09-.03-6.17,0-9.26-.02-1.93-.01-3.85-.15-5.69-.82-3.57-1.29-5.7-3.77-6.24-7.56-.25-1.78-.25-3.55.15-5.31.92-3.96,3.67-6.51,7.8-7.15,1.08-.17,2.18-.26,3.27-.26,6.21-.03,12.43-.01,18.64-.01h.54v4.06c0,.63-.51,1.15-1.14,1.15-3.28,0-12.8,0-17.82,0-.79,0-1.59.04-2.37.17-2.22.38-3.87,2.35-3.99,4.6-.04.76,0,1.56.17,2.29.51,2.11,2.07,3.11,4.07,3.5.85.17,1.73.22,2.59.23,3.33.03,6.67,0,10,.03,2.61.02,5.12.53,7.44,1.97,2.09,1.29,3.45,3.52,3.92,5.94.41,2.11.43,4.22-.05,6.31-.93,4.04-3.62,6.29-7.55,7.15-1.16.25-2.38.37-3.57.38-7.02.03-14.04.02-21.07.02-.16,0-.33-.01-.55-.02"/>
    <path class="st0" d="M41.36,52.42h4.16c.64,0,1.15.51,1.15,1.15,0,3.95,0,17.09.01,23.99,0,.93.07,1.87.27,2.77.59,2.59,2.37,4.14,5.06,4.52.55.08,1.11.13,1.67.13,2.71.01,5.43.02,8.14-.01.76-.01,1.53-.11,2.27-.29,2.52-.62,4.09-2.45,4.42-5.08.08-.68.12-1.36.12-2.04,0-6.9,0-20.03,0-23.98,0-.64.51-1.15,1.15-1.15h3.96l.03.03c0,8.56.03,17.12-.03,25.68-.01,1.62-.18,3.29-.59,4.84-1.02,3.84-3.7,6.01-7.52,6.81-1.13.24-2.3.36-3.45.38-3.11.05-6.21.07-9.32,0-1.37-.03-2.78-.21-4.11-.55-4.03-1.02-6.35-3.71-7.08-7.76-.23-1.25-.31-2.55-.32-3.83-.03-8.3-.01-16.61-.01-24.91v-.7Z"/>
  </g>
  <g>
    <g>
      <path class="st0" d="M115.49,14.26c-.13,0-.26,0-.39,0,1.17,2.47,1.82,5.23,1.82,8.15s-.65,5.68-1.82,8.15c.13,0,.26,0,.39,0,4.51,0,8.16-3.65,8.16-8.16s-3.65-8.16-8.16-8.16Z"/>
      <path class="st0" d="M157.06,14.26c.13,0,.26,0,.39,0-1.17,2.47-1.82,5.23-1.82,8.15s.65,5.68,1.82,8.15c-.13,0-.26,0-.39,0-4.51,0-8.16-3.65-8.16-8.16s3.65-8.16,8.16-8.16Z"/>
    </g>
    <g>
      <path class="st0" d="M118.82,36.34c-.07.11-.13.23-.19.34,2.72.23,5.44,1.04,7.97,2.5,2.52,1.46,4.59,3.4,6.15,5.65.07-.11.14-.22.2-.33,2.25-3.9.92-8.89-2.99-11.14s-8.89-.92-11.14,2.99Z"/>
      <path class="st0" d="M139.6.33c.07-.11.13-.22.2-.33,1.56,2.25,3.62,4.19,6.15,5.65,2.52,1.46,5.24,2.27,7.97,2.5-.06.11-.12.23-.19.34-2.25,3.9-7.24,5.24-11.14,2.99s-5.24-7.24-2.99-11.14Z"/>
    </g>
    <g>
      <path class="st0" d="M139.6,44.49c.07.11.13.22.2.33,1.56-2.25,3.62-4.19,6.15-5.65,2.52-1.46,5.24-2.27,7.97-2.5-.06-.11-.12-.23-.19-.34-2.25-3.9-7.24-5.24-11.14-2.99s-5.24,7.24-2.99,11.14Z"/>
      <path class="st0" d="M118.82,8.49c-.07-.11-.13-.23-.19-.34,2.72-.23,5.44-1.04,7.97-2.5S131.18,2.25,132.74,0c.07.11.14.22.2.33,2.25,3.9.92,8.89-2.99,11.14s-8.89.92-11.14-2.99Z"/>
    </g>
  </g>
</svg>