<?xml version="1.0" encoding="UTF-8"?>
<svg xmlns="http://www.w3.org/2000/svg" viewBox="0 0 42.35 44.83">
  <g fill="#3ebdac">
    <path d="M.39,14.26c-.13,0-.26,0-.39,0,1.17,2.47,1.82,5.23,1.82,8.15s-.65,5.68-1.82,8.15c.13,0,.26,0,.39,0,4.51,0,8.16-3.65,8.16-8.16S4.89,14.26.39,14.26Z"/>
    <path d="M41.96,14.26c.13,0,.26,0,.39,0-1.17,2.47-1.82,5.23-1.82,8.15s.65,5.68,1.82,8.15c-.13,0-.26,0-.39,0-4.51,0-8.16-3.65-8.16-8.16s3.65-8.16,8.16-8.16Z"/>
    <path d="M3.72,36.34c-.07.11-.13.23-.19.34,2.72.23,5.44,1.04,7.97,2.5,2.52,1.46,4.59,3.4,6.15,5.65.07-.11.14-.22.2-.33,2.25-3.9.92-8.89-2.99-11.14s-8.89-.92-11.14,2.99Z"/>
    <path d="M24.51.33c.07-.11.13-.22.2-.33,1.56,2.25,3.62,4.19,6.15,5.65,2.52,1.46,5.24,2.27,7.97,2.5-.06.11-.12.23-.19.34-2.25,3.9-7.24,5.24-11.14,2.99s-5.24-7.24-2.99-11.14Z"/>
    <path d="M24.51,44.49c.07.11.13.22.2.33,1.56-2.25,3.62-4.19,6.15-5.65,2.52-1.46,5.24-2.27,7.97-2.5-.06-.11-.12-.23-.19-.34-2.25-3.9-7.24-5.24-11.14-2.99s-5.24,7.24-2.99,11.14Z"/>
    <path d="M3.72,8.49c-.07-.11-.13-.23-.19-.34,2.72-.23,5.44-1.04,7.97-2.5S16.09,2.25,17.64,0c.07.11.14.22.2.33,2.25,3.9.92,8.89-2.99,11.14s-8.89.92-11.14-2.99Z"/>
  </g>
</svg>
